<svg id="light" enable-background="new 0 0 24 24" height="512" viewBox="0 0 24 24" width="512" xmlns="http://www.w3.org/2000/svg"><g><path d="m9 11c-2.757 0-5-2.243-5-5s2.243-5 5-5 5 2.243 5 5-2.243 5-5 5zm0-9c-2.206 0-4 1.794-4 4s1.794 4 4 4 4-1.794 4-4-1.794-4-4-4z"/></g><g><path d="m22.5 24h-6c-.827 0-1.5-.673-1.5-1.5v-4c0-.827.673-1.5 1.5-1.5h6c.827 0 1.5.673 1.5 1.5v4c0 .827-.673 1.5-1.5 1.5zm-6-6c-.276 0-.5.224-.5.5v4c0 .276.224.5.5.5h6c.276 0 .5-.224.5-.5v-4c0-.276-.224-.5-.5-.5z"/></g><g><path d="m21.5 18h-4c-.276 0-.5-.224-.5-.5v-2c0-1.378 1.122-2.5 2.5-2.5s2.5 1.122 2.5 2.5v2c0 .276-.224.5-.5.5zm-3.5-1h3v-1.5c0-.827-.673-1.5-1.5-1.5s-1.5.673-1.5 1.5z"/></g><g><path d="m12.5 22h-12c-.276 0-.5-.224-.5-.5v-4c0-2.481 2.019-4.5 4.5-4.5h9c.792 0 1.571.209 2.253.606.239.139.319.445.181.684-.139.239-.445.319-.684.181-.529-.308-1.134-.471-1.75-.471h-9c-1.93 0-3.5 1.57-3.5 3.5v3.5h11.5c.276 0 .5.224.5.5s-.224.5-.5.5z"/></g></svg>