<svg id="Layer_1" data-name="Layer 1" xmlns="http://www.w3.org/2000/svg" xmlns:xlink="http://www.w3.org/1999/xlink" viewBox="0 0 841.89 841.89"><defs><style>.cls-1{fill:#1d1d1b;}.cls-2{fill:url(#linear-gradient);}.cls-3{fill:url(#linear-gradient-2);}</style><linearGradient id="linear-gradient" x1="416.29" y1="461.65" x2="416.29" y2="341.9" gradientUnits="userSpaceOnUse"><stop offset="0.32" stop-color="#48ac34"/><stop offset="0.37" stop-color="#3fa745"/><stop offset="0.51" stop-color="#289a6f"/><stop offset="0.65" stop-color="#178f90"/><stop offset="0.78" stop-color="#0a88a8"/><stop offset="0.9" stop-color="#0384b6"/><stop offset="1" stop-color="#0082bb"/></linearGradient><linearGradient id="linear-gradient-2" x1="416.29" y1="412.66" x2="416.29" y2="381.08" xlink:href="#linear-gradient"/></defs><title>‏‏סקיצות שרה ליבוביץ - עותק</title><path class="cls-1" d="M69.82,359.88v-3.13h63.87v3.13H102.54v86.91H98.7V359.88Z"/><path class="cls-1" d="M169.11,356.75h6l31.58,90h-3.84l-8.11-22.9H149.33l-8.1,22.9h-3.84Zm2.84,2.57-21.48,61.44h43.24Z"/><path class="cls-1" d="M221.45,446.79v-90h3.84v42l37.7-42h5l-38.54,42.68,35.84,47.36h-4.55L225.29,400v46.79Z"/><path class="cls-1" d="M284.89,356.75h48.79v3.13H288.73v38.41h38v3.13h-38v42.25h46.8v3.12H284.89Z"/><path class="cls-2" d="M463.66,341.9H368.93a12.55,12.55,0,0,0-12.51,12.51v94.73a12.55,12.55,0,0,0,12.51,12.51h94.73a12.54,12.54,0,0,0,12.5-12.51V354.41A12.54,12.54,0,0,0,463.66,341.9ZM438.34,446.79q-2.41-7.11-6-18.77H400.08q-2,6.41-6.12,18.77H375.33l33.14-90h15.65l33.14,90Z"/><path class="cls-3" d="M405.48,412.66H427.1q-6.69-19.64-10.67-31.58Q412.45,392.32,405.48,412.66Z"/><path class="cls-1" d="M499.68,445V356.47a135.86,135.86,0,0,1,20.62-1.71q14.09,0,21.34,6.69,6.4,5.69,6.4,15.65a1.66,1.66,0,0,1-.14.71q-.15,7.68-3.56,11.95T532,397.86l.86.15q18.34,4.83,18.35,23.89v.71q-.43,23.89-30.87,24.18h-1A131.31,131.31,0,0,1,499.68,445Zm3.84-85.21v36.84h17.92q10.24,0,16.5-5.4A17.91,17.91,0,0,0,544.2,377q0-18.34-24-19.06h-2.28A68.52,68.52,0,0,0,503.52,359.74Zm0,40v42.11a83.9,83.9,0,0,0,14.93,1.85h2.28q26.16-.72,26.6-21.06V422q0-10.38-6.69-16.35t-18.21-6Z"/><path class="cls-1" d="M603.09,353.34q18.48,0,28.73,16.22,8.1,12.66,8.11,30.15,0,20.63-10.67,34.14Q619,446.8,602.8,446.79q-18.34,0-28.87-16.5-8.4-12.93-8.4-30.58,0-20.34,10.53-33.43,10.1-12.79,26.74-12.94Zm-33.72,46.23v.14q0,20.78,10.53,33.14a29.27,29.27,0,0,0,22.9,10.82h.14q15.79,0,25-13.66,8.1-12,8.11-30.16v-.14q0-21.19-10.25-33-8.82-10.24-22.9-10.24h-.14q-16.21.15-25.46,13.51Q569.38,381.65,569.37,399.57Z"/><path class="cls-1" d="M708.49,356.75H713l24.89,85.63,30.44-85.63h4.12l-32.71,90h-4.13L710.9,361l-24.75,85.77h-3.84l-33.14-90h4.13l30.86,85.49Z"/></svg>