<svg id="Layer_1" data-name="Layer 1" xmlns="http://www.w3.org/2000/svg" xmlns:xlink="http://www.w3.org/1999/xlink" viewBox="0 0 841.89 841.89"><defs><style>.cls-1{fill:url(#linear-gradient);}</style><linearGradient id="linear-gradient" x1="420.94" y1="653.82" x2="420.94" y2="188.07" gradientUnits="userSpaceOnUse"><stop offset="0.32" stop-color="#48ac34"/><stop offset="0.37" stop-color="#42a93e"/><stop offset="0.67" stop-color="#1f9481"/><stop offset="0.89" stop-color="#0987ab"/><stop offset="1" stop-color="#0082bb"/></linearGradient></defs><title>‏‏סקיצות שרה ליבוביץ - עותק</title><path class="cls-1" d="M605.18,188.07H236.71a48.79,48.79,0,0,0-48.64,48.64V605.18a48.79,48.79,0,0,0,48.64,48.64H605.18a48.79,48.79,0,0,0,48.64-48.64V236.71A48.79,48.79,0,0,0,605.18,188.07ZM544.59,435.85c9.3-33.34-4.14-26.1-4.14-26.1L506.6,593l-7.5-1.55,1,19.38c-3.88,10.21-27.92,3.62-27.92,3.62l-.77-3.1c-59.28,11.14-55.05-7.75-55.05-7.75s-2.84-.31-3.11-1.36c-1.42-5.56,3.2-5.14,3.2-5.14,16.28,1.94,37.64-24.52,37.64-24.52C467.31,551,472.74,386.1,472.74,386.1c-54.46-12.21-56.6-23.26-56.6-23.26-6,14.73-15.11,18.61-15.11,18.61-21.84,2.33-57.38,3.2-57.38,3.2s-2.47-13.42-2.84-16.51a106.18,106.18,0,0,1-.06-11.31s-2.14-.87-10.08-3.48-23.84-.59-27.33-.78-6.21-5.23-6.21-5.23c-13.76,14-30.36-2.07-30.36-2.07-27.23-7-11.89-40-11.89-40-18.12-12.12-6.64-9.93-4.26-9.11,15.61,5.37,59.5,28.68,59.5,28.68-2.71-3.49,2.13-2.32,2.13-2.32.46.13,24.42,18.6,24.42,18.6,53.4,14.93,53.31,6.21,53.31,6.21,6.65-8.21,4.6-25.24.77-32.37-2.49-4.64-13-14-16.57-13-2.33.68-6.3,5.33-9.79,9.5s-7.17,1.94-8,.39-6.3,0-6.3,0a23,23,0,0,1-1.94-2.91c-.77-1.45-2.71-.39-2.71-.39s-2.62,3.59-4.65,3.2-4.46-9.21-4.46-9.21l-5.82.2S308.18,291,319.23,263.22s40.51-13.09,42.45-8.53,10.53,8.14,10.53,8.14H377l1.16-5.82,39.29.49c77.12,10,101.36,55.68,125.74,94.7,9,14.45,28.43,54.51,34,66.85C588.52,444.38,544.59,435.85,544.59,435.85Z"/></svg>